<svg xmlns:xlink="http://www.w3.org/1999/xlink">

    <symbol viewBox="0 0 14 19" id="address" xmlns="http://www.w3.org/2000/svg">
        <defs>
            <g id="address_icon">
                <path xmlns="http://www.w3.org/2000/svg" d="M7 0C3.1 0 0 3.27222 0 7.38889C0 11.6111 4.49999 16.9945 6.29999 18.6833C6.69999 19.1056 7.30001 19.1056 7.70001 18.6833C9.50001 16.8889 14 11.6111 14 7.38889C14 3.27222 10.9 0 7 0ZM7 10.5556C5.3 10.5556 4 9.18333 4 7.38889C4 5.59444 5.3 4.22222 7 4.22222C8.7 4.22222 10 5.59444 10 7.38889C10 9.18333 8.7 10.5556 7 10.5556Z"/>
            </g>
        </defs>
        <use xlink:href="#address_icon" transform="translate(0 0 14 19)"/>
    </symbol>
    <symbol viewBox="0 0 18 21" id="number" xmlns="http://www.w3.org/2000/svg">
        <defs>
            <g id="number_icon">
            <path xmlns="http://www.w3.org/2000/svg" d="M5.13815 14.777C7.26198 17.3027 9.83293 19.0706 12.7392 20.0809C15.0866 20.8386 16.8751 19.702 17.2105 18.8181C17.5458 17.8078 17.7694 16.7975 17.9929 15.7873C18.2165 14.1456 13.0746 11.8725 12.2921 13.5142C12.0685 13.8931 11.845 15.2822 10.6154 14.3982C8.71513 12.6302 6.81486 10.4834 5.24993 8.33664C4.57924 6.94754 5.69705 6.69498 6.03239 6.44241C7.37376 5.68472 5.36171 -0.124253 4.02034 0.00202857C3.685 0.00202857 1.78473 0.759721 1.33761 0.886003C0.555141 1.26485 -0.450885 3.28536 0.219799 5.93728C1.22582 9.22062 2.90253 12.2514 5.13815 14.777Z"/>
            </g>
        </defs>
        <use xlink:href="#number_icon" transform="translate(0 0 18 21)"/>
    </symbol>
    <symbol viewBox="0 0 19 10" id="vk" xmlns="http://www.w3.org/2000/svg">
        <defs>
            <g id="vk_icon">
                <path xmlns="http://www.w3.org/2000/svg" d="M9.26368 9.91197H10.398C10.398 9.91197 10.7761 9.91197 10.8706 9.73653C10.9652 9.64881 11.0597 9.47338 11.0597 9.29794C11.0597 9.29794 11.0597 7.89443 11.7214 7.71899C12.3831 7.54355 13.3284 9.1225 14.2736 9.64881C14.6517 9.91197 15.0299 9.99969 15.5025 9.99969H18.0547C18.0547 9.99969 19.3781 9.91197 18.7164 8.94706C18.1493 8.15759 17.5821 7.54355 16.8259 6.92952C15.2189 5.52601 15.408 5.78917 17.393 3.42074C18.5274 2.01724 19 1.14004 18.9055 0.701446C18.8109 0.350569 17.9602 0.438288 17.9602 0.438288H15.1244C15.0299 0.438288 14.8408 0.438288 14.7463 0.526007C14.6517 0.613727 14.5572 0.701446 14.4627 0.789165C14.1791 1.49092 13.801 2.19267 13.4229 2.80671C12.194 4.82425 11.6269 4.91197 11.4378 4.82425C10.9652 4.56109 11.0597 3.6839 11.0597 3.06987C11.0597 1.14004 11.3433 0.350569 10.398 0.0874109C10.0199 -0.000308391 9.54727 -0.000308391 9.07463 -0.000308391C8.31841 -0.0880277 7.46766 -0.000308394 6.71144 0.262849C6.42786 0.438288 6.14428 0.701446 6.33333 0.789165C6.61692 0.789165 6.99503 0.964604 7.18408 1.14004C7.37313 1.57864 7.56219 1.92952 7.46766 2.36811C7.46766 2.36811 7.65672 4.64881 7.08955 4.91197C6.71144 5.08741 6.14428 4.73653 5.00995 2.89443C4.44279 1.92952 3.97015 0.964604 3.97015 0.964604C3.97015 0.876885 3.87562 0.789165 3.78109 0.701446C3.68657 0.701446 3.49751 0.613727 3.30846 0.526007H0.567164C0.378109 0.526007 0.189055 0.613727 0 0.701446C0 0.876885 0 1.05232 0 1.14004C0 1.14004 2.0796 5.70145 4.53731 8.06987C5.8607 9.21022 7.56219 9.91197 9.26368 9.91197Z"/>            </g>
        </defs>
        <use xlink:href="#vk_icon" transform="translate(0 0 19 10)"/>
    </symbol>
    <symbol viewBox="0 0 13 13" id="instagram" xmlns="http://www.w3.org/2000/svg">
        <defs>
            <g id="instagram_icon">
                <path xmlns="http://www.w3.org/2000/svg" d="M12.9177 3.29114C12.9177 2.55063 12.7532 2.13924 12.6709 1.81013C12.5063 1.48101 12.3418 1.1519 12.0949 0.905063C11.8481 0.658228 11.519 0.493671 11.1899 0.329114C10.943 0.246835 10.5316 0.0822785 9.70886 0.0822785C8.88608 0 8.63924 0 6.5 0C4.36076 0 4.11392 0 3.29114 0.0822785C2.55063 0.0822785 2.13924 0.246835 1.81013 0.329114C1.48101 0.493671 1.1519 0.658228 0.905063 0.905063C0.658228 1.1519 0.493671 1.48101 0.329114 1.81013C0.246835 2.13924 0.0822785 2.55063 0.0822785 3.29114C0 4.11392 0 4.36076 0 6.5C0 8.63924 0 8.88608 0.0822785 9.70886C0.0822785 10.4494 0.246835 10.8608 0.329114 11.1899C0.493671 11.519 0.658228 11.8481 0.905063 12.0949C1.1519 12.3418 1.48101 12.5063 1.81013 12.6709C2.05696 12.7532 2.46835 12.9177 3.29114 12.9177C4.11392 12.9177 4.36076 13 6.5 13C8.63924 13 8.88608 13 9.70886 12.9177C10.4494 12.9177 10.8608 12.7532 11.1899 12.6709C11.519 12.5063 11.8481 12.3418 12.0949 12.0949C12.3418 11.8481 12.5063 11.519 12.6709 11.1899C12.7532 10.943 12.9177 10.5316 12.9177 9.70886C12.9177 8.88608 13 8.63924 13 6.5C13 4.36076 13 4.11392 12.9177 3.29114ZM6.5 10.5316C4.27848 10.5316 2.46835 8.72152 2.46835 6.5C2.46835 4.27848 4.27848 2.46835 6.5 2.46835C8.72152 2.46835 10.5316 4.27848 10.5316 6.5C10.5316 8.72152 8.72152 10.5316 6.5 10.5316ZM10.6962 3.20886C10.2025 3.20886 9.70886 2.79747 9.70886 2.22152C9.70886 1.72785 10.1203 1.23418 10.6962 1.23418C11.1899 1.23418 11.6835 1.64557 11.6835 2.22152C11.6835 2.79747 11.2722 3.20886 10.6962 3.20886Z"/>            </g>
        </defs>
        <use xlink:href="#instagram_icon" transform="translate(0 0 13 13)"/>
    </symbol>
    <symbol viewBox="0 0 43 44" id="smile" xmlns="http://www.w3.org/2000/svg">
        <defs>
            <g id="smile_icon">
                <path xmlns="http://www.w3.org/2000/svg" d="M21.7009 44C19.8857 44 18.0302 43.7215 16.094 43.1646C11.4551 41.807 7.50203 38.9525 4.75906 35.4715C0.563942 30.0759 -0.968892 23.5665 0.644617 17.231C0.967319 16.0127 1.3707 14.8291 1.85475 13.6804C4.23467 8.21519 9.27689 2.19304 16.094 0.52215C22.5077 -1.04431 29.2441 1.11392 34.1249 4.73417C36.1821 6.23101 37.9167 8.04114 39.3688 9.9905C46.912 20.5032 42.3538 36.3766 29.5668 42.2595C27.1465 43.3734 24.4439 44 21.7009 44ZM1.89509 23.0791C1.93542 29.1709 5.24312 34.9494 11.0517 38.4652C18.2722 42.8513 27.9936 43.4082 34.0846 37.3164C38.7234 32.6519 41.5471 26.5253 41.1034 20.3639C40.821 16.0127 38.8848 11.3829 35.4964 8.11076C32.1887 4.87341 28.8003 2.12342 23.5161 1.56645C13.2703 0.52215 5.68683 8.38924 3.02454 16.1519C2.29846 18.3797 1.89509 20.7468 1.89509 23.0791Z"/>
                <path xmlns="http://www.w3.org/2000/svg" d="M20.6126 34.1487C16.2158 34.1139 11.8997 32.5823 8.67267 29.8671C8.39031 29.6234 8.39031 29.2405 8.63233 29.0316C8.87436 28.788 9.2374 28.6835 9.60044 28.788C9.92314 28.8924 10.2458 29.0664 10.4879 29.2753C14.5216 32.3038 19.5639 33.2088 24.7271 32.3038C26.1389 32.0601 27.4297 31.538 28.6398 30.8766C30.6164 29.8323 32.5526 28.7183 34.5291 27.6392C34.9729 27.3956 35.5779 27.2215 35.9006 27.5696C36.183 27.9177 35.7796 28.3702 35.4166 28.6487C32.4719 30.8418 29.1239 32.6867 25.3725 33.6266C23.7993 33.9747 22.1858 34.1487 20.6126 34.1487Z"/>
                <path xmlns="http://www.w3.org/2000/svg" d="M13.4326 19.2848C13.4326 18.0665 13.7957 16.8481 14.6427 15.9082C15.4092 15.038 16.579 15.1076 17.305 15.9778C18.5152 17.4747 18.4345 19.4241 17.5471 21.0253C17.2244 21.6519 16.579 22.7658 15.7319 22.8703C14.7638 22.9747 13.8763 21.9304 13.715 21.2342C13.5133 20.6424 13.4326 19.9462 13.4326 19.2848Z"/>
                <path xmlns="http://www.w3.org/2000/svg" d="M29.7694 18.3101C29.6887 19.4936 29.366 20.538 28.6803 21.5126C28.3576 21.9652 27.9542 22.3481 27.3895 22.5917C24.0818 24.0538 24.9692 17.3006 26.26 16.1171C27.1475 15.2816 28.5189 15.3861 29.2047 16.3955C29.5677 16.8481 29.8098 17.6139 29.7694 18.3101Z"/>
            </g>
        </defs>
        <use xlink:href="#smile_icon" transform="translate(0 0 43 44)"/>
    </symbol>
    <symbol viewBox="0 0 43 44" id="sad" xmlns="http://www.w3.org/2000/svg">
        <defs>
            <g id="sad_icon">
                <path xmlns="http://www.w3.org/2000/svg" d="M41.9135 19.8142C41.8558 19.2573 41.7981 18.7004 41.7116 18.1435C40.9039 12.6036 38.7116 7.62064 34.2116 4.16188C30.0001 0.878987 24.2597 -0.498655 19.0097 0.146199C8.077 1.52384 -0.0287694 11.607 7.67481e-05 22.6868C7.67481e-05 23.1264 0.0289229 23.5661 0.057769 23.9765C0.548154 31.4216 5.62508 38.0167 12.2308 41.0944C16.9905 43.3221 22.9039 43.4393 27.952 42.1496C33.4905 40.7427 37.7597 36.3459 40.0962 31.1578C41.6539 27.6111 42.202 23.654 41.9135 19.8142ZM40.9328 23.273C40.6443 26.9956 39.5481 30.6302 37.7308 33.6493C36.5193 35.6718 34.9328 37.4598 33.0289 38.8374C27.6347 42.7358 19.9328 43.029 13.8462 40.6547C6.952 37.9874 1.99046 31.8906 1.21161 24.3282C0.548154 17.821 3.31738 10.8742 8.10584 6.56542C15.7212 -0.293474 28.7308 -0.41072 35.9135 7.18096C39.8655 11.3139 41.3943 17.3814 40.9328 23.273Z"/>
                <path xmlns="http://www.w3.org/2000/svg" d="M17.423 16.3266C17.423 16.4438 17.423 16.561 17.423 16.649C17.3941 17.6456 17.1634 18.818 16.7018 19.7267C16.0672 20.9285 14.6249 21.3974 14.1922 19.6681C14.0768 19.1698 13.9326 18.6715 13.9038 18.1439C13.8461 17.5283 13.8461 16.8835 13.8749 16.2679C13.9038 15.8576 13.9903 15.4765 14.1057 15.0955C14.5672 13.8058 15.6634 13.6592 16.5576 13.8058C17.3941 13.923 17.4518 15.4472 17.423 16.3266Z"/>
                <path xmlns="http://www.w3.org/2000/svg" d="M31.0388 31.8616C31.0388 31.9203 31.0388 31.9496 31.0388 32.0082C31.01 32.5358 30.5196 33.0634 30.0004 32.9755C29.5965 32.9168 29.3081 32.5944 29.0196 32.3013C27.9523 31.2168 26.4523 30.5426 24.9523 30.4547C23.6831 30.3961 22.3273 30.8064 21.3177 31.5392C20.6542 32.0375 19.9908 32.5944 19.2119 32.9462C18.4331 33.2979 17.135 33.0927 18.26 32.1841C20.135 30.6305 22.6158 29.3701 25.0388 29.2529C26.7408 29.165 28.9042 29.6046 30.2888 30.6305C30.6927 30.953 31.01 31.3926 31.0388 31.8616Z"/>
                <path xmlns="http://www.w3.org/2000/svg" d="M27.779 17.2059C27.7502 17.6456 27.6925 18.0852 27.5771 18.5249C27.404 19.1405 26.5675 20.9578 25.7309 20.7819C24.029 20.4008 24.3752 15.1541 25.3848 14.2161C26.1059 13.5419 27.0578 13.8058 27.3752 14.7437C27.6348 15.5058 27.779 16.3559 27.779 17.2059Z"/>
            </g>
        </defs>
        <use xlink:href="#sad_icon" transform="translate(0 0 43 44)"/>
    </symbol>
    <symbol viewBox="0 0 43 45" id="surprised" xmlns="http://www.w3.org/2000/svg">
        <defs>
            <g id="surprised_icon">
                <path xmlns="http://www.w3.org/2000/svg" d="M9.36704 3.12912C12.8393 0.223496 18.1285 -0.260776 22.6102 0.111741C27.6572 0.521509 32.26 2.42134 35.9342 5.66224C37.4281 7.0033 38.7605 8.49336 39.8506 10.1697C41.7483 13.1126 42.8384 16.5025 42.9999 19.9296C43.2018 23.6175 41.9905 26.7467 40.4966 30.1366C39.3257 32.7442 37.953 35.24 36.0957 37.4751C31.9774 42.5041 25.1943 45.6705 18.29 44.8882C17.1192 44.7765 16.0694 44.4412 15.0196 43.9942C12.0722 42.8394 9.69004 40.9768 7.30788 39.1142C5.89474 37.9967 4.72385 36.6556 3.79521 35.1283C2.42244 32.9677 1.17079 30.9189 0.565161 28.4602C-0.040473 25.9644 -0.121224 23.3195 0.242156 20.7864C0.928541 16.2417 2.9877 11.9578 5.45061 7.97184C6.50037 6.25826 7.67126 4.54469 9.24591 3.20363C9.28629 3.20363 9.32666 3.16638 9.36704 3.12912ZM2.01868 23.5058C2.09943 25.5919 2.42244 27.678 3.06845 29.6896C3.55295 31.2914 4.15859 33.0795 5.2891 34.346C6.6215 35.8361 7.95389 37.2516 9.44779 38.5927C11.6684 40.6043 14.0102 42.1316 17.0788 42.8021C27.7379 45.1862 36.9839 35.3891 40.1332 27.0074C42.6365 20.3394 40.9004 13.2988 35.8534 8.04634C31.1699 3.20363 23.8619 0.297999 16.7961 1.89982C8.64028 3.72515 3.67408 11.4362 2.34169 18.7003C2.05906 20.3021 1.93793 21.904 2.01868 23.5058Z"/>
                <path xmlns="http://www.w3.org/2000/svg" d="M28.9088 20.1531C29.03 22.0529 28.6262 23.8782 27.8591 25.6291C27.6572 26.1133 27.2534 26.5976 26.8093 26.9701C26.0826 27.6034 25.3558 27.5661 24.6694 26.8956C24.0638 26.2996 23.5389 25.6291 23.2563 24.8468C22.4891 22.6489 22.1257 20.4138 22.5295 18.1042C22.7718 16.7632 23.4178 15.6084 24.7502 14.9006C25.9614 14.2673 26.9708 14.4908 27.6976 15.6084C28.4243 16.7259 28.8281 17.918 28.8281 19.2218C28.8281 19.557 28.8685 19.8551 28.9088 20.1531ZM23.983 20.1531C23.983 21.0844 24.1041 22.0157 24.4272 22.8724C24.6694 23.5802 25.598 25.8898 26.6882 24.437C26.8093 24.288 26.9304 24.1017 26.9708 23.8782C27.3746 22.4627 27.6168 20.8981 27.4149 19.408C27.2938 18.5513 26.6882 15.6084 25.0732 16.5024C24.4272 16.8749 24.2253 18.2905 24.1042 18.9238C24.0234 19.3335 24.0234 19.7433 23.983 20.1531Z"/>
                <path xmlns="http://www.w3.org/2000/svg" d="M11.6682 21.2707C11.5875 19.8179 12.0316 18.4023 12.5565 17.024C12.7987 16.3163 13.3236 15.7947 13.9293 15.3477C14.4138 15.0124 14.8983 14.9379 15.4635 15.1615C16.6748 15.683 17.4823 16.5025 17.8053 17.7318C18.4917 20.2649 18.0879 22.7235 17.3208 25.1821C17.0786 26.0017 16.4325 26.5605 15.625 26.933C14.6964 27.3427 13.7678 27.1565 13.1621 26.3742C12.8795 26.0017 12.6776 25.5919 12.4757 25.1821C11.9105 23.9156 11.6682 22.6863 11.6682 21.2707ZM13.2025 20.7865C13.2832 22.202 13.5659 23.6176 13.9696 24.5116C14.1715 24.8841 14.4138 25.2567 14.8983 25.2567C15.3828 25.2567 15.6654 24.9214 15.8673 24.5489C15.9077 24.4744 15.9884 24.3626 15.9884 24.2881C16.6748 22.2765 16.7959 20.2277 16.0288 18.1788C15.9077 17.8436 15.7058 17.5456 15.4232 17.2848C14.8983 16.8005 14.1311 16.9123 13.8081 17.5456C13.687 17.8063 13.5659 18.1043 13.4851 18.4023C13.4044 19.1846 13.3236 20.0042 13.2025 20.7865Z"/>
                <path xmlns="http://www.w3.org/2000/svg" d="M21.0756 35.7988C20.47 35.7615 19.6625 35.7243 18.855 35.6498C17.6841 35.538 18.3301 34.4205 19.178 34.346C20.5104 34.1969 21.8024 34.0479 23.1348 33.8989C23.8212 33.8244 25.6784 33.4892 24.9113 34.7557C24.5075 35.4263 23.8615 35.7615 23.054 35.836C22.4888 35.7988 21.8831 35.7988 21.0756 35.7988Z"/>
            </g>
        </defs>
        <use xlink:href="#surprised_icon" transform="translate(0 0 43 45)"/>
    </symbol>
    <symbol viewBox="0 0 475.084 475.084" id="search" xmlns="http://www.w3.org/2000/svg">
        <defs>
            <g id="search_icon">
                <path xmlns="http://www.w3.org/2000/svg" d="M464.524,412.846l-97.929-97.925c23.6-34.068,35.406-72.047,35.406-113.917c0-27.218-5.284-53.249-15.852-78.087   c-10.561-24.842-24.838-46.254-42.825-64.241c-17.987-17.987-39.396-32.264-64.233-42.826   C254.246,5.285,228.217,0.003,200.999,0.003c-27.216,0-53.247,5.282-78.085,15.847C98.072,26.412,76.66,40.689,58.673,58.676   c-17.989,17.987-32.264,39.403-42.827,64.241C5.282,147.758,0,173.786,0,201.004c0,27.216,5.282,53.238,15.846,78.083   c10.562,24.838,24.838,46.247,42.827,64.234c17.987,17.993,39.403,32.264,64.241,42.832c24.841,10.563,50.869,15.844,78.085,15.844   c41.879,0,79.852-11.807,113.922-35.405l97.929,97.641c6.852,7.231,15.406,10.849,25.693,10.849   c9.897,0,18.467-3.617,25.694-10.849c7.23-7.23,10.848-15.796,10.848-25.693C475.088,428.458,471.567,419.889,464.524,412.846z    M291.363,291.358c-25.029,25.033-55.148,37.549-90.364,37.549c-35.21,0-65.329-12.519-90.36-37.549   c-25.031-25.029-37.546-55.144-37.546-90.36c0-35.21,12.518-65.334,37.546-90.36c25.026-25.032,55.15-37.546,90.36-37.546   c35.212,0,65.331,12.519,90.364,37.546c25.033,25.026,37.548,55.15,37.548,90.36C328.911,236.214,316.392,266.329,291.363,291.358z   "/>            </g>
        </defs>
        <use xlink:href="#search_icon" transform="translate(0 0 475.084 475.084)"/>
    </symbol>
    <symbol viewBox="0 0 485.211 485.211" id="mail" xmlns="http://www.w3.org/2000/svg">
        <defs>
            <g id="mail_icon">
                <path xmlns="http://www.w3.org/2000/svg" d="M485.211,363.906c0,10.637-2.992,20.498-7.785,29.174L324.225,221.67l151.54-132.584   c5.895,9.355,9.446,20.344,9.446,32.219V363.906z M242.606,252.793l210.863-184.5c-8.653-4.737-18.397-7.642-28.908-7.642H60.651   c-10.524,0-20.271,2.905-28.889,7.642L242.606,252.793z M301.393,241.631l-48.809,42.734c-2.855,2.487-6.41,3.729-9.978,3.729   c-3.57,0-7.125-1.242-9.98-3.729l-48.82-42.736L28.667,415.23c9.299,5.834,20.197,9.329,31.983,9.329h363.911   c11.784,0,22.687-3.495,31.983-9.329L301.393,241.631z M9.448,89.085C3.554,98.44,0,109.429,0,121.305v242.602   c0,10.637,2.978,20.498,7.789,29.174l153.183-171.44L9.448,89.085z"/>
            </g>
        </defs>
        <use xlink:href="#mail_icon" transform="translate(0 0 485.211 485.211)"/>
    </symbol>
    <symbol viewBox="0 0 15 18" id="download" xmlns="http://www.w3.org/2000/svg">
        <defs>
            <g id="download_icon">
                <path xmlns="http://www.w3.org/2000/svg" d="M13 17H2C1.5 17.1 1.1 16.7 1 16.2C1 16.1 1 16.1 1 16V2C1 1.3 1.3 1 2 1H9L14 6V16C14 16.5 13.6 17 13.1 17H13Z" stroke-width="2" stroke-miterlimit="10" stroke-linejoin="round"/>
                <path xmlns="http://www.w3.org/2000/svg" d="M14 6H10C9.5 6.1 9.1 5.7 9 5.2C9 5.1 9 5.1 9 5V1" stroke-width="2" stroke-miterlimit="10" stroke-linejoin="round"/>
                <path xmlns="http://www.w3.org/2000/svg" d="M11 10H7" stroke-width="2" stroke-miterlimit="10" stroke-linejoin="round"/>
                <path xmlns="http://www.w3.org/2000/svg" d="M6 10H4" stroke-width="2" stroke-miterlimit="10" stroke-linejoin="round"/>
                <path xmlns="http://www.w3.org/2000/svg" d="M11 13H7" stroke-width="2" stroke-miterlimit="10" stroke-linejoin="round"/>
                <path xmlns="http://www.w3.org/2000/svg" d="M6 13H4" stroke-width="2" stroke-miterlimit="10" stroke-linejoin="round"/>
            </g>
        </defs>
        <use xlink:href="#download_icon" transform="translate(0 0 15 18)"/>
    </symbol>

</svg>

